<svg width="61" height="34" viewBox="0 0 61 34" fill="none" xmlns="http://www.w3.org/2000/svg">
<path fill-rule="evenodd" clip-rule="evenodd" d="M0 0H60.3774V33.4389H0V0Z" fill="url(#paint0_linear_552_202)"/>
<path fill-rule="evenodd" clip-rule="evenodd" d="M0 0H60.3774V33.4389H0V0Z" fill="url(#paint1_linear_552_202)"/>
<path d="M30.1878 23.4073C34.9515 23.4073 38.8132 20.4131 38.8132 16.7195C38.8132 13.026 34.9515 10.0317 30.1878 10.0317C25.4242 10.0317 21.5625 13.026 21.5625 16.7195C21.5625 20.4131 25.4242 23.4073 30.1878 23.4073Z" fill="url(#paint2_linear_552_202)"/>
<path fill-rule="evenodd" clip-rule="evenodd" d="M30.1881 24.6L26.6694 28.6727L25.7781 23.8196L20.3288 26.3051L22.2415 21.6328L15.941 22.039L20.2788 18.4728L14.375 16.7191L20.2788 14.9655L15.941 11.3993L22.2415 11.8055L20.3288 7.13317L25.7781 9.6187L26.6694 4.76562L30.1881 8.83824L33.7069 4.76562L34.5982 9.6187L40.0474 7.13317L38.1348 11.8055L44.4352 11.3993L40.0974 14.9655L46.0012 16.7191L40.0974 18.4728L44.4352 22.039L38.1348 21.6328L40.0474 26.3051L34.5982 23.8196L33.7069 28.6727L30.1881 24.6ZM30.1881 24.5216C35.7457 24.5216 40.251 21.0283 40.251 16.7191C40.251 12.41 35.7457 8.91674 30.1881 8.91674C24.6305 8.91674 20.1252 12.41 20.1252 16.7191C20.1252 21.0283 24.6305 24.5216 30.1881 24.5216Z" fill="url(#paint3_linear_552_202)"/>
<path fill-rule="evenodd" clip-rule="evenodd" d="M2.875 2.79154C2.875 2.48086 3.18269 2.229 3.60051 2.229H5.0246C5.42529 2.229 5.75011 2.46757 5.75011 2.79154V3.89573C5.75011 4.20641 5.44242 4.45826 5.0246 4.45826H3.60051C3.19982 4.45826 2.875 4.21969 2.875 3.89573V2.79154ZM2.875 7.25006C2.875 6.93938 3.18269 6.68752 3.60051 6.68752H5.0246C5.42529 6.68752 5.75011 6.92609 5.75011 7.25006V8.35425C5.75011 8.66493 5.44242 8.91678 5.0246 8.91678H3.60051C3.19982 8.91678 2.875 8.67821 2.875 8.35425V7.25006ZM2.875 11.7086C2.875 11.3979 3.18269 11.146 3.60051 11.146H5.0246C5.42529 11.146 5.75011 11.3846 5.75011 11.7086V12.8128C5.75011 13.1234 5.44242 13.3753 5.0246 13.3753H3.60051C3.19982 13.3753 2.875 13.1367 2.875 12.8128V11.7086ZM2.875 16.1671C2.875 15.8564 3.18269 15.6046 3.60051 15.6046H5.0246C5.42529 15.6046 5.75011 15.8431 5.75011 16.1671V17.2713C5.75011 17.582 5.44242 17.8338 5.0246 17.8338H3.60051C3.19982 17.8338 2.875 17.5952 2.875 17.2713V16.1671ZM2.875 20.6256C2.875 20.3149 3.18269 20.0631 3.60051 20.0631H5.0246C5.42529 20.0631 5.75011 20.3016 5.75011 20.6256V21.7298C5.75011 22.0405 5.44242 22.2923 5.0246 22.2923H3.60051C3.19982 22.2923 2.875 22.0538 2.875 21.7298V20.6256ZM2.875 25.0841C2.875 24.7735 3.18269 24.5216 3.60051 24.5216H5.0246C5.42529 24.5216 5.75011 24.7602 5.75011 25.0841V26.1883C5.75011 26.499 5.44242 26.7509 5.0246 26.7509H3.60051C3.19982 26.7509 2.875 26.5123 2.875 26.1883V25.0841ZM2.875 29.5427C2.875 29.232 3.18269 28.9801 3.60051 28.9801H5.0246C5.42529 28.9801 5.75011 29.2187 5.75011 29.5427V30.6468C5.75011 30.9575 5.44242 31.2094 5.0246 31.2094H3.60051C3.19982 31.2094 2.875 30.9708 2.875 30.6468V29.5427ZM5.75011 27.3134C5.75011 27.0027 6.0578 26.7509 6.47562 26.7509H7.89971C8.3004 26.7509 8.62522 26.9894 8.62522 27.3134V28.4176C8.62522 28.7283 8.31754 28.9801 7.89971 28.9801H6.47562C6.07493 28.9801 5.75011 28.7415 5.75011 28.4176V27.3134ZM5.75011 22.8549C5.75011 22.5442 6.0578 22.2923 6.47562 22.2923H7.89971C8.3004 22.2923 8.62522 22.5309 8.62522 22.8549V23.9591C8.62522 24.2697 8.31754 24.5216 7.89971 24.5216H6.47562C6.07493 24.5216 5.75011 24.283 5.75011 23.9591V22.8549ZM5.75011 18.3964C5.75011 18.0857 6.0578 17.8338 6.47562 17.8338H7.89971C8.3004 17.8338 8.62522 18.0724 8.62522 18.3964V19.5005C8.62522 19.8112 8.31754 20.0631 7.89971 20.0631H6.47562C6.07493 20.0631 5.75011 19.8245 5.75011 19.5005V18.3964ZM5.75011 13.9378C5.75011 13.6272 6.0578 13.3753 6.47562 13.3753H7.89971C8.3004 13.3753 8.62522 13.6139 8.62522 13.9378V15.042C8.62522 15.3527 8.31754 15.6046 7.89971 15.6046H6.47562C6.07493 15.6046 5.75011 15.366 5.75011 15.042V13.9378ZM5.75011 9.47932C5.75011 9.16864 6.0578 8.91678 6.47562 8.91678H7.89971C8.3004 8.91678 8.62522 9.15535 8.62522 9.47932V10.5835C8.62522 10.8942 8.31754 11.146 7.89971 11.146H6.47562C6.07493 11.146 5.75011 10.9075 5.75011 10.5835V9.47932ZM5.75011 5.0208C5.75011 4.71012 6.0578 4.45826 6.47562 4.45826H7.89971C8.3004 4.45826 8.62522 4.69683 8.62522 5.0208V6.12499C8.62522 6.43567 8.31754 6.68752 7.89971 6.68752H6.47562C6.07493 6.68752 5.75011 6.44895 5.75011 6.12499V5.0208Z" fill="url(#paint4_linear_552_202)"/>
<defs>
<linearGradient id="paint0_linear_552_202" x1="633.962" y1="0" x2="633.962" y2="501.583" gradientUnits="userSpaceOnUse">
<stop stop-color="white"/>
<stop offset="1" stop-color="#F0F0F0"/>
</linearGradient>
<linearGradient id="paint1_linear_552_202" x1="633.962" y1="0" x2="633.962" y2="501.583" gradientUnits="userSpaceOnUse">
<stop stop-color="#30C6E0"/>
<stop offset="1" stop-color="#1CB0C9"/>
</linearGradient>
<linearGradient id="paint2_linear_552_202" x1="202.695" y1="10.0317" x2="202.695" y2="210.665" gradientUnits="userSpaceOnUse">
<stop stop-color="#FFCD4B"/>
<stop offset="1" stop-color="#FEC531"/>
</linearGradient>
<linearGradient id="paint3_linear_552_202" x1="346.45" y1="4.76562" x2="346.45" y2="363.371" gradientUnits="userSpaceOnUse">
<stop stop-color="#FFCD4B"/>
<stop offset="1" stop-color="#FEC531"/>
</linearGradient>
<linearGradient id="paint4_linear_552_202" x1="63.2523" y1="2.229" x2="63.2523" y2="436.935" gradientUnits="userSpaceOnUse">
<stop stop-color="#FFCD4B"/>
<stop offset="1" stop-color="#FEC531"/>
</linearGradient>
</defs>
</svg>
