<svg width="48" height="48" viewBox="0 0 48 48" fill="none" xmlns="http://www.w3.org/2000/svg">
<path fill-rule="evenodd" clip-rule="evenodd" d="M48 6.77772C48 3.0345 44.9655 0 41.2223 0H6.77772C3.0345 0 0 3.0345 0 6.77772V41.2223C0 44.9656 3.0345 48 6.77772 48H41.2223C44.9655 48 48 44.9656 48 41.2223V6.77772ZM39.7655 20.935C36.6686 20.9696 33.7829 20.0333 31.2493 18.2993V30.4718C31.2493 35.8817 27.5461 40.529 22.3095 41.7427C15.1654 43.3726 9.11766 38.2054 8.35488 32.0326C7.55724 25.8595 11.4942 20.4495 17.5284 19.2357C18.7075 18.993 20.4809 18.993 21.3959 19.2011V25.7207C21.1144 25.6516 20.8507 25.5821 20.5733 25.5475C18.2151 25.1312 15.9311 26.3104 14.9947 28.4605C14.0584 30.6107 14.6851 33.1075 16.5925 34.5643C18.1876 35.8126 19.9576 35.9859 21.7609 35.1536C23.5643 34.3561 24.5335 32.8996 24.7414 30.9229C24.7761 30.6455 24.7742 30.3333 24.7742 30.0212V6.61236C24.7742 5.9535 24.7793 5.98224 25.4383 5.98224H30.6055C30.9871 5.98224 31.1258 6.03714 31.1605 6.48822C31.4377 10.511 34.492 13.937 38.4107 14.4573C38.827 14.5266 39.2729 14.5541 39.7655 14.5887V20.935Z" fill="black"/>
</svg>
